<?xml version="1.0" encoding="utf-8"?>
<!-- Generator: Adobe Illustrator 22.1.0, SVG Export Plug-In . SVG Version: 6.00 Build 0)  -->
<svg version="1.1" id="Livello_1" xmlns="http://www.w3.org/2000/svg" xmlns:xlink="http://www.w3.org/1999/xlink" x="0px" y="0px"
	 viewBox="0 0 47 62" style="enable-background:new 0 0 47 62;" xml:space="preserve">
<style type="text/css">
	.st0{fill:#1D1D1B;}
	.st1{fill:#9C9B9B;}
	.st2{fill:#D9D9D9;}
	.st3{fill:#E9DEBE;}
</style>
<g>
	<g>
		<rect x="38.4" y="57" class="st0" width="6" height="4.4"/>
	</g>
	<g>
		<path class="st1" d="M19.7,6.6C19.7,6.6,19.6,6.6,19.7,6.6l-0.1,54.7h20.7c0.2-2.8,0.4-5.7,0.4-8.6C40.6,27.1,31.3,6.6,19.7,6.6z"
			/>
	</g>
	<g>
		<path class="st1" d="M21.7,6.6L7.4,6.4c-3.4,0-6.2,2.8-6.2,6.2v1c0,3.4,2.8,6.2,6.2,6.2h17.3L21.7,6.6z"/>
	</g>
	<g>
		<path class="st2" d="M21.7,6.6L9.1,8.8c-3.1,0-5.6,2.3-5.6,5.1v0.9c0,2.8,2.5,5.1,5.6,5.1h15.7L21.7,6.6z"/>
	</g>
	<g>
		<path class="st0" d="M1.2,6.4v7.2c0.1,0,0.2,0,0.3,0c3.3,0,5.9-3.2,5.9-7.1c0,0,0-0.1,0-0.1H1.2z"/>
	</g>
	<g>
		<path class="st3" d="M21,8.9c-0.3,1-0.9,1.8-1.7,1.8c-0.8,0-1.5-0.7-1.7-1.8h-1c0,1.7,1.2,3.1,2.6,3.1c1.5,0,2.6-1.4,2.6-3.1H21z"
			/>
	</g>
	<g>
		<path class="st0" d="M19.6,37.6v19c0,0-0.1,0-0.1,0c-3.4,0-6.1,2.1-6.1,4.7c0,0,0,0,0,0h6.2c0,0,2.1,0,2.1,0V37.6H19.6z"/>
	</g>
	<g>
		<path class="st0" d="M25.1,37.6v19c0,0-0.1,0-0.1,0c-3.4,0-6.1,2.1-6.1,4.7c0,0,0,0,0,0h6.2c0,0,2.1,0,2.1,0V37.6H25.1z"/>
	</g>
	<g>
		<path class="st0" d="M30.8,62c-0.3,0-0.6-0.2-0.7-0.6c0-0.1-1.1-5.5-1.6-11.2c-0.3-3.4-0.4-6.2-0.2-8.3c0.3-2.9,1-4.6,2.2-5.2
			c1.5-0.8,3.5,0.2,6,2.9c0.3,0.3,0.2,0.7,0,1c-0.3,0.3-0.7,0.2-1,0c-1.9-2.1-3.5-3-4.3-2.6c-0.7,0.4-2.2,2.3-1.3,12.2
			c0.5,5.6,1.6,11.1,1.6,11.1c0.1,0.4-0.2,0.7-0.5,0.8C30.9,62,30.9,62,30.8,62z"/>
	</g>
	<g>
		<g>
			<path class="st2" d="M24.5,7.6l-2.9,53.7l8.8,0c-1.7-2.3-1.8-22.3,0.3-24.2c2-2,4.7,2.8,4.7,2.8c-9.4-8-2.7,17.8-1.8,21.4l6.6,0
				c0.2-2.8,0.4-5.7,0.4-8.6C40.6,30.8,33.8,12.5,24.5,7.6z"/>
		</g>
	</g>
	<g>
		<path class="st0" d="M17.5,8.9H21c0,0,0.1,1.8-1.8,1.9C17.4,10.9,17.5,8.9,17.5,8.9L17.5,8.9z"/>
	</g>
	<g>
		<path class="st0" d="M21.7,6.6c0.5,14.1,4.1,25,8.6,25c2.3,0,4.3-2.9,5.9-7.6C32.7,14.3,27.5,7.8,21.7,6.6z"/>
	</g>
</g>
</svg>
