<?xml version="1.0" encoding="utf-8"?>
<!-- Generator: Adobe Illustrator 22.1.0, SVG Export Plug-In . SVG Version: 6.00 Build 0)  -->
<svg version="1.1" id="Livello_1" xmlns="http://www.w3.org/2000/svg" xmlns:xlink="http://www.w3.org/1999/xlink" x="0px" y="0px"
	 viewBox="0 0 47 62" style="enable-background:new 0 0 47 62;" xml:space="preserve">
<style type="text/css">
	.st0{fill:#E85F0C;}
	.st1{fill:#ECECEC;}
	.st2{fill:#F5D673;}
	.st3{fill:#3C3C3B;}
</style>
<g>
	<path class="st0" d="M23.4,58.7c0-1.3-1.1-2.3-2.6-2.3H3c-1.4,0-2.6,1-2.6,2.3C0.4,59.9,1.5,61,3,61h17.9
		C22.2,61,23.4,59.9,23.4,58.7z"/>
</g>
<g>
	<path class="st1" d="M23.4,59.2c0-1-0.8-2.8-2.2-2.8l-17.9,1c-1.4,0-2.5,0.8-2.5,1.8c0,1,1.1,1.8,2.5,1.8h17.5
		C22.3,61,23.4,60.2,23.4,59.2z"/>
</g>
<g>
	<path class="st0" d="M46.3,62c0.1-0.3,0.3-0.6,0.4-0.9H34.1V15.8c-0.1,0-0.2,0-0.3,0c-8.9,0-16.1,12.7-16.1,28.4
		c0,6.7,1.3,12.9,3.5,17.8H46.3z"/>
</g>
<g>
	<path class="st0" d="M22.7,15.5c0,0.1,0,0.3,0,0.4c0,8.1,4.8,14.6,10.7,14.6C39.3,30.6,44,24.1,44,16c0-0.1,0-0.3,0-0.4H22.7z"/>
</g>
<g>
	<path class="st2" d="M27.1,18.6c0,0,0,0.1,0,0.1c0,1.4,1.1,2.6,2.4,2.6s2.4-1.2,2.4-2.6c0,0,0-0.1,0-0.1H27.1z"/>
</g>
<g>
	<path class="st3" d="M28.2,18.6C28.2,18.6,28.2,18.6,28.2,18.6c0,0.8,0.6,1.4,1.2,1.4c0.7,0,1.2-0.6,1.2-1.3c0,0,0,0,0-0.1H28.2z"
		/>
</g>
<g>
	<path class="st2" d="M36.3,18.6c0,0,0,0.1,0,0.1c0,1.4,1.1,2.6,2.4,2.6c1.3,0,2.4-1.2,2.4-2.6c0,0,0-0.1,0-0.1H36.3z"/>
</g>
<g>
	<path class="st3" d="M32.3,18.6C32.3,18.6,32.3,18.6,32.3,18.6c0,1.1,0.8,2,1.7,2c1,0,1.7-0.8,1.7-1.9c0,0,0-0.1,0-0.1H32.3z"/>
</g>
<g>
	<rect x="33.9" y="19.3" class="st3" width="0.4" height="6.9"/>
</g>
<g>
	<path class="st3" d="M37.6,18.6C37.6,18.6,37.6,18.6,37.6,18.6c0,0.8,0.6,1.4,1.2,1.4c0.7,0,1.2-0.6,1.2-1.3c0,0,0,0,0-0.1H37.6z"
		/>
</g>
<g>
	<path class="st3" d="M36.5,27.8c-0.1,0-0.2-0.1-0.2-0.2c0,0-0.4-1.2-2.1-1.2c0,0,0,0,0,0c-1.8,0-2.2,1.2-2.2,1.2
		c0,0.1-0.2,0.2-0.3,0.1c-0.1,0-0.2-0.2-0.1-0.3c0-0.1,0.6-1.5,2.7-1.5c0,0,0,0,0,0c2.1,0,2.5,1.5,2.6,1.6
		C36.7,27.6,36.6,27.8,36.5,27.8C36.5,27.8,36.5,27.8,36.5,27.8z"/>
</g>
<g>
	<path class="st0" d="M22.7,16l4.6,0.2c0,0-0.2-3.5-4.6-3.8V16z"/>
</g>
<g>
	<path class="st1" d="M22.7,12.4V16l4.6,0.2C27.3,16.1,25.6,12.9,22.7,12.4z"/>
</g>
<g>
	<path class="st0" d="M44,16l-4.6,0.2c0,0,0.2-3.8,4.6-4.1V16z"/>
</g>
<g>
	<path class="st1" d="M44,16l-4.6,0.1c0,0,0.2-3,4.6-3.2V16z"/>
</g>
<g>
	<path class="st1" d="M23.9,61.5C23.9,61.5,23.9,61.5,23.9,61.5c-0.3,0-0.4-0.2-0.4-0.5c0.7-4.8,2.1-17.9-0.1-20.5
		c-0.2-0.2-0.4-0.4-0.7-0.4c-1.4,0-2.4,1.3-2.4,1.3c-0.1,0.2-0.4,0.2-0.6,0.1c-0.2-0.1-0.2-0.4-0.1-0.6c0-0.1,1.2-1.7,3.1-1.7
		c0.5,0,1,0.2,1.3,0.6c2.9,3.3,0.4,20.4,0.3,21.1C24.3,61.4,24.1,61.5,23.9,61.5z"/>
</g>
<g>
	<path class="st0" d="M34,40.4v16.4c0,0,0,0,0.1,0c2.9,0,5.3,1.8,5.3,4.1c0,0,0,0,0,0H34c0,0-1.8,0-1.8,0V40.4H34z"/>
</g>
<g>
	<path class="st1" d="M34,40.4v16.4c0,0,0,0,0.1,0c2.9,0,5.3,1.8,5.3,4.1c0,0,0,0,0,0H34c0,0-1.8,0-1.8,0V40.4H34z"/>
</g>
<g>
	<path class="st1" d="M34,40.4v16.4c0,0,0,0,0.1,0c2.9,0,5.3,1.8,5.3,4.1c0,0,0,0,0,0H34c0,0-1.8,0-1.8,0V40.4H34z"/>
</g>
<g>
	<path class="st0" d="M28.3,40.4v16.4c0,0,0,0,0.1,0c2.9,0,5.3,1.8,5.3,4.1c0,0,0,0,0,0h-5.4c0,0-1.8,0-1.8,0V40.4H28.3z"/>
</g>
</svg>
