<?xml version="1.0" encoding="utf-8"?>
<!-- Generator: Adobe Illustrator 22.1.0, SVG Export Plug-In . SVG Version: 6.00 Build 0)  -->
<svg version="1.1" id="Livello_1" xmlns="http://www.w3.org/2000/svg" xmlns:xlink="http://www.w3.org/1999/xlink" x="0px" y="0px"
	 viewBox="0 0 47 62" style="enable-background:new 0 0 47 62;" xml:space="preserve">
<style type="text/css">
	.st0{fill:#E84E1B;}
	.st1{fill:#F9F4E5;}
	.st2{fill:#3C3C3B;}
	.st3{fill:#ECECEC;}
</style>
<g>
	<path class="st0" d="M36.5,34.1c2.7-2.7,8.7-3.5,8.7-3.5c-6.1-2.9-10-2.5-12.4-1.1c0.9-3.5,0.6-8.4-4.7-13.1l4.5,1.1l-11.3-7.4
		L19.2,12l0.1,0.1C11,11.1,5,18.6,5,18.6c0,8.5,2.3,13.4,5.5,16l0,4.3l3.7,1.2l-1.2-4c3.3,1.5,7.1,1.4,10.3,0.7l0,2.4l3.7,1.2
		l-1.2-4l-0.2-0.2c2.2-0.6,3.9-1.3,4.6-1.7c0.2,2.7,1.9,8.6,11.4,8.4C41.6,43.1,35,37.8,36.5,34.1z"/>
</g>
<g>
	<path class="st1" d="M11.4,17.4c-1.3,2.1-0.5,5,1.7,6.4c2.2,1.5,5.1,1.1,6.6-0.9L11.4,17.4z"/>
</g>
<g>
	<path class="st2" d="M13.2,18.7c-0.5,1.2,0,2.5,1.1,3.3c1.1,0.7,2.5,0.6,3.4-0.3L13.2,18.7z"/>
</g>
<g>
	<path class="st2" d="M12.5,31c-0.1-0.1-0.1-0.2-0.1-0.3c0.6-5-7.5-11.7-7.6-11.7c-0.1-0.1-0.2-0.3,0-0.4c0.1-0.1,0.3-0.1,0.4,0
		c0.3,0.3,8.4,7,7.8,12.3c0,0.2-0.2,0.3-0.3,0.3C12.6,31.1,12.6,31.1,12.5,31z"/>
</g>
<g>
	<polygon class="st3" points="15.4,29.2 15.4,34.1 19.1,35.3 17.9,31.3 	"/>
</g>
</svg>
