<?xml version="1.0" encoding="utf-8"?>
<!-- Generator: Adobe Illustrator 22.1.0, SVG Export Plug-In . SVG Version: 6.00 Build 0)  -->
<svg version="1.1" id="Livello_1" xmlns="http://www.w3.org/2000/svg" xmlns:xlink="http://www.w3.org/1999/xlink" x="0px" y="0px"
	 viewBox="0 0 47 62" style="enable-background:new 0 0 47 62;" xml:space="preserve">
<style type="text/css">
	.st0{fill:#866E6A;}
	.st1{fill:#F9F4E5;}
	.st2{fill:#3C3C3B;}
</style>
<g>
	<g>
		<ellipse class="st0" cx="18.4" cy="37.2" rx="13.9" ry="23"/>
	</g>
	<g>
		<path class="st1" d="M24.7,17.4c0,0,10.6-2.2,8.5,2.9C31,25.3,25.4,19,24.7,17.4z"/>
		<path class="st0" d="M30.7,22.7c-2.7,0-6-3.8-6.6-5.1L23.9,17l0.7-0.1c0.1,0,2.3-0.5,4.6-0.5c2.3,0,3.8,0.5,4.4,1.5
			c0.5,0.7,0.5,1.6,0,2.6C32.8,22.3,31.6,22.7,30.7,22.7z M25.5,17.8c1,1.4,3.4,3.9,5.2,3.9c0.8,0,1.4-0.5,1.9-1.6
			c0.3-0.7,0.3-1.2,0.1-1.6c-0.4-0.6-1.7-1-3.5-1C27.8,17.5,26.4,17.6,25.5,17.8z"/>
	</g>
	<g>
		<g>
			<path class="st1" d="M11.8,17.6c0,0-10-3.9-8.8,1.4C4.2,24.4,10.7,19.1,11.8,17.6z"/>
		</g>
		<g>
			<path class="st0" d="M5.4,21.9c-1.1,0-2.5-0.5-3-2.8c-0.2-1-0.1-1.9,0.4-2.5c0.5-0.7,1.5-1,2.8-1c2.7,0,6.2,1.4,6.4,1.4l0.6,0.3
				l-0.4,0.6C11.4,19.1,8,21.9,5.4,21.9z M5.6,16.8c-0.7,0-1.6,0.1-2,0.6c-0.3,0.3-0.3,0.8-0.2,1.5c0.4,1.7,1.3,1.9,2,1.9
				c1.9,0,4.3-1.8,5.4-3C9.7,17.5,7.4,16.8,5.6,16.8z"/>
		</g>
	</g>
	<g>
		<path class="st1" d="M12.5,17.5c0.1,1.1,0.7,2,1.5,2c0.8,0,1.4-0.9,1.5-2H12.5z"/>
	</g>
	<g>
		<path class="st2" d="M13,17.5c0,0.7,0.5,1.3,1,1.3c0.5,0,1-0.6,1-1.3H13z"/>
	</g>
	<g>
		<path class="st1" d="M21,17.4c0.1,1.1,0.7,2,1.5,2c0.8,0,1.4-0.9,1.5-2H21z"/>
	</g>
	<g>
		<path class="st2" d="M21.6,17.4c0,0.7,0.5,1.3,1,1.3c0.5,0,1-0.6,1-1.3H21.6z"/>
	</g>
	<g>
		<path class="st1" d="M20,24.7c0.2-1.1,0.3-2.4,0.3-3.8H16c0,1.4,0.1,2.7,0.3,3.8H20z"/>
	</g>
	<g>
		<rect x="18" y="20.4" class="st0" width="0.4" height="4.8"/>
	</g>
	<g>
		<polygon class="st2" points="18.2,19.5 19.5,17.5 17,17.5 		"/>
	</g>
	<g>
		<path class="st1" d="M30.4,37.2c0,6.4-5.4,11.5-12,11.5c-6.6,0-12-5.2-12-11.5c0-6.4,5.4-11.5,12-11.5
			C25.1,25.7,30.4,30.8,30.4,37.2z"/>
		<path class="st0" d="M18.5,49.3C11.6,49.3,6,43.9,6,37.2c0-6.7,5.6-12.1,12.5-12.1c6.9,0,12.5,5.4,12.5,12.1
			C31,43.9,25.4,49.3,18.5,49.3z M18.5,26.2c-6.3,0-11.4,4.9-11.4,11s5.1,11,11.4,11c6.3,0,11.4-4.9,11.4-11S24.8,26.2,18.5,26.2z"
			/>
	</g>
	<g>
		<path class="st0" d="M14.4,31.3c-0.7,1.1-1.8,1.6-2.6,1.1l-4.4-2.8c-0.8-0.5-0.8-1.7-0.2-2.8c0.7-1.1,1.8-1.6,2.6-1.1l4.4,2.8
			C15,28.9,15,30.2,14.4,31.3z"/>
	</g>
	<g>
		<path class="st0" d="M29,25.4c1.1,0.7,1.6,1.8,1.1,2.6l-2.8,4.4c-0.5,0.8-1.7,0.8-2.8,0.2c-1.1-0.7-1.6-1.8-1.1-2.6l2.8-4.4
			C26.7,24.8,27.9,24.8,29,25.4z"/>
	</g>
	<g>
		<path class="st0" d="M31.6,39.2c0,0,9,2.9,9.2-3.7c0.2-6.6-0.2-8.5-0.2-8.5s10.7,12.5-2.6,13.4c-1.5,0.1-5.4,0.4-6.1,0.2
			C30.9,40.4,33,39.6,31.6,39.2z"/>
	</g>
</g>
</svg>
