<?xml version="1.0" encoding="utf-8"?>
<!-- Generator: Adobe Illustrator 22.1.0, SVG Export Plug-In . SVG Version: 6.00 Build 0)  -->
<svg version="1.1" id="Livello_1" xmlns="http://www.w3.org/2000/svg" xmlns:xlink="http://www.w3.org/1999/xlink" x="0px" y="0px"
	 viewBox="0 0 47 62" style="enable-background:new 0 0 47 62;" xml:space="preserve">
<style type="text/css">
	.st0{fill:#2DAB66;}
	.st1{fill:#6BBFAD;}
	.st2{fill:#F4C500;}
	.st3{fill:#E85F0C;}
	.st4{fill:#3C3C3B;}
	.st5{fill:#866E6A;}
	.st6{fill:#F5D673;}
</style>
<g>
	<path class="st0" d="M28.4,1.4c-0.9-0.7-5.5-0.9-6.5-0.9c-6.4,0-10.8,15.9-10.8,35.6c0,13.4,2.4,25.1,6,31.1h4.4h1.4h4.4
		c-3.6-6.1-6-17.7-6-31.1c0-11.5,1.8-21.7,4.6-28.2H21C22.8,3.5,25.2,0.9,28.4,1.4z"/>
</g>
<g>
	<path class="st0" d="M16,17.1h-1.6c0.1,5.8,0.5,12.8,1,20.2c1,13.4,0,20.6,3.3,29.9h8.5c-3.2-5.5-9.8-17.3-10.7-30.7
		C16.1,29.4,15.9,22.7,16,17.1z"/>
</g>
<g>
	<path class="st1" d="M31,49.8c0.5-4.2,0.8-8.8,0.8-13.7c0-19.6-4.6-35.6-10.3-35.6c-5.7,0-10.3,15.9-10.3,35.6
		c0,4.9,0.3,9.5,0.8,13.7H31z"/>
</g>
<g>
	<path class="st0" d="M31,49.8c0.5-4.2,0.8-8.8,0.8-13.7c0-19.6-4.6-35.6-10.3-35.6c-5.7,0-10.3,15.9-10.3,35.6
		c0,4.9,0.3,9.5,0.8,13.7H31z"/>
</g>
<g>
	<path class="st2" d="M24,4.7c-0.1,0-0.2,0-0.3,0v6.9c0.1,0,0.2,0,0.3,0c4.3,0,7.2,0.5,8.4,3.4C35.1,7.7,28.2,4.7,24,4.7z"/>
</g>
<g>
	<path class="st3" d="M18,9.9c0.4,0.1,4.2,0.3,4-4.9h-4.7C17.4,5,15.2,9.2,18,9.9z"/>
</g>
<g>
	<path class="st2" d="M17.4,5c0,0.1,0,0.3,0,0.4c0,1.4,1.1,2.6,2.4,2.6c1.3,0,2.4-1.2,2.4-2.6c0-0.1,0-0.3,0-0.4H17.4z"/>
</g>
<g>
	<path class="st4" d="M18.2,5c0.2,0.8,0.7,1.4,1.4,1.4s1.2-0.6,1.4-1.4H18.2z"/>
</g>
<g>
	<path class="st4" d="M26.1,5.8c0,0.2-0.4,0.3-0.8,0.3c-0.5,0-0.8-0.2-0.8-0.3c0-0.2,0.4-0.3,0.8-0.3C25.8,5.5,26.1,5.6,26.1,5.8z"
		/>
</g>
<g>
	<path class="st1" d="M18.4,23.3c0-4.1-0.3-8-0.8-11.5h-4.2c-1.3,6.5-2.1,14.5-2.1,23.2c0,5,0.3,9.7,0.7,14.1
		C15.7,46.2,18.4,35.8,18.4,23.3z"/>
</g>
<g>
	<path class="st3" d="M16.2,41.1c0,0,4.5-18.5,3.5-29.4h-2.1C17.6,11.8,19.2,31.6,16.2,41.1z"/>
</g>
<g>
	<path class="st5" d="M6.6,82.8c-0.5,0-1-0.4-1-1V54.8c0-3.8,3.7-5,5.7-5.1l0.1,0H36c0.5,0,1,0.4,1,1c0,0.5-0.4,1-1,1H11.5
		c-0.3,0-3.9,0.4-3.9,3.2v27.1C7.6,82.4,7.2,82.8,6.6,82.8z"/>
</g>
<g>
	<path class="st6" d="M22,48.7c-0.1,0.3-0.1,0.7-0.1,1.1c0,1.6,0.5,2.8,1.1,2.8c0.6,0,1.1-1.3,1.1-2.8c0-0.4,0-0.7-0.1-1.1H22z"/>
</g>
<g>
	<path class="st6" d="M24.2,48.7c-0.1,0.3-0.1,0.7-0.1,1.1c0,1.6,0.5,2.8,1.1,2.8c0.6,0,1.1-1.3,1.1-2.8c0-0.4,0-0.7-0.1-1.1H24.2z"
		/>
</g>
<g>
	<path class="st6" d="M30.8,48.7c-0.1,0.3-0.1,0.7-0.1,1.1c0,1.6,0.5,2.8,1.1,2.8c0.6,0,1.1-1.3,1.1-2.8c0-0.4,0-0.7-0.1-1.1H30.8z"
		/>
</g>
</svg>
